<?xml version="1.0" encoding="utf-8"?>
<!-- Generator: Adobe Illustrator 19.0.1, SVG Export Plug-In . SVG Version: 6.00 Build 0)  -->
<svg version="1.1" id="Layer_1" xmlns="http://www.w3.org/2000/svg" xmlns:xlink="http://www.w3.org/1999/xlink" x="0px" y="0px"
	 viewBox="0 0 199.6 199.6" enable-background="new 0 0 199.6 199.6" xml:space="preserve">
<rect x="0" y="0" fill="#C58041" width="199.6" height="199.6"/>
<path fill="#FFFFFF" d="M51.1,34.3h97.7c9.3,0,16.9,7.6,16.9,16.9v97.7c0,9.3-7.6,16.9-16.9,16.9H51.1c-9.3,0-16.9-7.6-16.9-16.9
	V51.1C34.3,41.9,41.9,34.3,51.1,34.3z M130,48.9c-3.3,0-5.9,2.7-5.9,5.9V69c0,3.3,2.7,5.9,5.9,5.9h14.9c3.3,0,5.9-2.7,5.9-5.9V54.8
	c0-3.3-2.7-5.9-5.9-5.9H130z M150.9,89.9h-11.6c1.1,3.6,1.7,7.4,1.7,11.3c0,21.9-18.3,39.6-40.9,39.6c-22.6,0-40.9-17.7-40.9-39.6
	c0-3.9,0.6-7.7,1.7-11.3H48.9v55.5c0,2.9,2.3,5.2,5.2,5.2h91.5c2.9,0,5.2-2.3,5.2-5.2V89.9z M100.1,74.1
	c-14.6,0-26.4,11.4-26.4,25.6c0,14.1,11.8,25.6,26.4,25.6c14.6,0,26.4-11.5,26.4-25.6C126.5,85.6,114.7,74.1,100.1,74.1z"/>
</svg>
