<?xml version="1.0" encoding="utf-8"?>
<!-- Generator: Adobe Illustrator 19.0.0, SVG Export Plug-In . SVG Version: 6.00 Build 0)  -->
<svg version="1.1" id="Layer_1" xmlns="http://www.w3.org/2000/svg" xmlns:xlink="http://www.w3.org/1999/xlink" x="0px" y="0px"
	 viewBox="0 0 408.9 123.9" enable-background="new 0 0 408.9 123.9" xml:space="preserve">
<g id="XMLID_357_">
	<path id="XMLID_358_" d="M179.6,11.4l1.5-11.1h2.1l-0.7,5.1l-1.5,9.3h-2.8l-1.1-7.4l-1.1,7.4h-2.8l-1.5-9.3L171,0.3h2.1l1.5,11.1
		l1.5-11.1h2.1L179.6,11.4z"/>
	<path id="XMLID_360_" d="M184.4,0.3h2.1v6.2h1.8V0.3h2.1v14.4h-2.1V8.5h-1.8v6.2h-2.1V0.3z"/>
	<path id="XMLID_362_" d="M198.1,11.9c0,2-1,3-3,3c-2,0-3-1-3-3V3.1c0-2,1-3,3-3c2,0,3,1,3,3V11.9z M196,3.1c0-0.6-0.3-1-0.9-1h0
		c-0.6,0-0.9,0.3-0.9,1v8.8c0,0.6,0.3,1,0.9,1c0.6,0,0.9-0.3,0.9-1V3.1z"/>
	<path id="XMLID_365_" d="M199.8,14.7V0.3h2.1v12.3h3.3v2H199.8z"/>
	<path id="XMLID_367_" d="M206.4,0.3h5.4v2h-3.3v4.1h2.8v2.1h-2.8v4.1h3.3v2h-5.4V0.3z"/>
	<path id="XMLID_369_" d="M217.1,0.3h5.4v2h-3.3v4.1h2.8v2.1h-2.8v4.1h3.3v2h-5.4V0.3z"/>
	<path id="XMLID_371_" d="M229.8,11.9c0,2-1,3-3,3c-2,0-3-1-3-3V3.1c0-2,1-3,3-3c2,0,3,1,3,3V5h-2.1V3.1c0-0.6-0.3-1-0.9-1h0
		c-0.6,0-0.9,0.3-0.9,1v8.8c0,0.6,0.3,1,0.9,1c0.6,0,0.9-0.3,0.9-1V8.5h-1V6.5h3.1V11.9z"/>
	<path id="XMLID_373_" d="M237.4,11.9c0,2-1,3-3,3c-2,0-3-1-3-3V3.1c0-2,1-3,3-3c2,0,3,1,3,3V5h-2.1V3.1c0-0.6-0.3-1-0.9-1h0
		c-0.6,0-0.9,0.3-0.9,1v8.8c0,0.6,0.3,1,0.9,1c0.6,0,0.9-0.3,0.9-1V8.5h-1V6.5h3.1V11.9z"/>
</g>
<rect id="XMLID_24_" x="0.5" y="24.6" fill="#F1F1F1" width="407.9" height="22.8"/>
<rect id="XMLID_2_" x="0.5" y="24.6" fill="none" stroke="#000000" stroke-miterlimit="10" width="407.9" height="98.8"/>
<line id="XMLID_5_" fill="none" stroke="#000000" stroke-miterlimit="10" x1="0.5" y1="47.4" x2="408.4" y2="47.4"/>
<line id="XMLID_10_" fill="none" stroke="#000000" stroke-width="0.5" stroke-miterlimit="10" x1="0.5" y1="63.4" x2="408.4" y2="63.4"/>
<line id="XMLID_11_" fill="none" stroke="#000000" stroke-width="0.5" stroke-miterlimit="10" x1="0.5" y1="78.4" x2="408.4" y2="78.4"/>
<line id="XMLID_13_" fill="none" stroke="#000000" stroke-width="0.5" stroke-miterlimit="10" x1="0.5" y1="93.4" x2="408.4" y2="93.4"/>
<line id="XMLID_12_" fill="none" stroke="#000000" stroke-width="0.5" stroke-miterlimit="10" x1="0.5" y1="108.4" x2="408.4" y2="108.4"/>
<g id="XMLID_269_">
	<path id="XMLID_270_" d="M19,29.9h4.1V31h-2.7v3.3h2.4v1.2h-2.4v3.3h2.7V40H19V29.9z"/>
	<path id="XMLID_272_" d="M28.8,38.2c0,1.4-0.8,2-2.3,2c-1.5,0-2.3-0.7-2.3-2v-6.4c0-1.4,0.8-2,2.3-2s2.3,0.7,2.3,2V33h-1.4v-1.3
		c0-0.6-0.3-0.9-0.9-0.9h0c-0.6,0-0.9,0.3-0.9,0.9v6.4c0,0.6,0.3,0.9,0.9,0.9s0.9-0.3,0.9-0.9v-2.6h-0.9v-1.2h2.2V38.2z"/>
	<path id="XMLID_274_" d="M34.6,38.2c0,1.4-0.8,2-2.3,2c-1.5,0-2.3-0.7-2.3-2v-6.4c0-1.4,0.8-2,2.3-2s2.3,0.7,2.3,2V33h-1.4v-1.3
		c0-0.6-0.3-0.9-0.9-0.9h0c-0.6,0-0.9,0.3-0.9,0.9v6.4c0,0.6,0.3,0.9,0.9,0.9s0.9-0.3,0.9-0.9v-2.6h-0.9v-1.2h2.2V38.2z"/>
	<path id="XMLID_276_" d="M38.9,31.8c0-1.4,0.8-2,2.3-2s2.3,0.7,2.3,2V33h-1.4v-1.3c0-0.6-0.3-0.9-0.9-0.9h0c-0.6,0-0.9,0.3-0.9,0.9
		v0.9c0,0.5,0.6,1.1,1.7,1.8c1,0.6,1.5,1.4,1.5,2.3v1.3c0,1.4-0.8,2-2.3,2c-1.5,0-2.3-0.7-2.3-2v-1.2h1.4v1.2c0,0.6,0.3,0.9,0.9,0.9
		c0.6,0,0.9-0.3,0.9-0.9V37c0-0.6-0.6-1.2-1.7-1.9c-1-0.6-1.5-1.4-1.5-2.3V31.8z"/>
	<path id="XMLID_278_" d="M44.9,29.9h1.4V40h-1.4V29.9z"/>
	<path id="XMLID_280_" d="M51.4,30.6L49,38.9h2.5V40h-4v-0.7l2.4-8.3h-2.3v-1.2h3.8V30.6z"/>
	<path id="XMLID_282_" d="M52.8,29.9h4.1V31h-2.7v3.3h2.4v1.2h-2.4v3.3h2.7V40h-4.1V29.9z"/>
	<path id="XMLID_284_" d="M25.3,56.3h0.8v0.5c0,1.3,0.3,1.5,1.9,1.5c1.6,0,1.8-0.1,1.8-1.7c0-1.1,0-1.4-1.7-1.6l-0.9-0.1
		c-1.5-0.1-1.8-0.6-1.8-2.3c0-2.1,0.6-2.4,2.6-2.4c2.1,0,2.6,0.4,2.6,2.4h-0.8v-0.2c0-1.1-0.4-1.4-1.8-1.4c-1.6,0-1.8,0.3-1.8,1.5
		c0,1.2,0.2,1.5,1.8,1.6c2.1,0.1,2.6,0.4,2.6,2.5c0,2.1-0.7,2.4-2.7,2.4c-2,0-2.7-0.4-2.7-2.1V56.3z"/>
	<path id="XMLID_286_" d="M31.9,52.9h0.8v0.9h0c0.4-0.7,0.8-1,1.6-1c0.8,0,1.4,0.2,1.8,1c0.5-0.7,1-1,1.8-1c1.2,0,1.8,0.6,1.8,1.8
		V59h-0.8v-4c0-1.2-0.5-1.5-1.3-1.5c-1,0-1.5,0.4-1.5,1.6V59h-0.8v-4.2c0-0.9-0.4-1.2-1.2-1.2c-1.1,0-1.5,0.7-1.5,1.9V59h-0.8V52.9z
		"/>
	<path id="XMLID_288_" d="M44.6,58.5c-0.4,0.5-0.9,0.6-1.8,0.6c-1.6,0-1.9-0.7-1.9-1.9c0-1.2,0.3-1.9,1.9-1.9c1.2,0,1.4,0.1,1.7,0.6
		h0v-1.1c0-0.9-0.1-1.2-1.4-1.2c-1.3,0-1.3,0.3-1.3,1.1h-0.8v-0.3c0-0.7,0.2-1.5,2.1-1.5c1.7,0,2.1,0.6,2.1,1.7V59h-0.7V58.5z
		 M43.1,58.3c1,0,1.5-0.3,1.5-1.2S44.1,56,43.1,56c-1,0-1.5,0.3-1.5,1.2S42.1,58.3,43.1,58.3z"/>
	<path id="XMLID_291_" d="M46.7,50.3h0.8V59h-0.8V50.3z"/>
	<path id="XMLID_293_" d="M49.2,50.3h0.8V59h-0.8V50.3z"/>
	<path id="XMLID_295_" d="M19.5,65.3h1.4l2.6,7.7h0l2.6-7.7h1.4V74h-0.8v-7.8h0L24,74h-0.9l-2.7-7.8h0V74h-0.8V65.3z"/>
	<path id="XMLID_297_" d="M29.7,71.1v0.6c0,1.3,0.2,1.7,1.3,1.7c1.2,0,1.5,0,1.5-1.2h0.8v0.2c0,1.2-0.3,1.7-2.1,1.7
		c-2,0-2.3-0.7-2.3-3.2c0-2.5,0.4-3.2,2.3-3.2c1.8,0,2.1,0.7,2.1,2.4v0.9H29.7z M32.5,70.4c0-1.3,0-1.9-1.4-1.9s-1.4,0.6-1.4,1.9
		H32.5z"/>
	<path id="XMLID_300_" d="M38.2,73.2L38.2,73.2c-0.3,0.6-0.7,0.9-1.6,0.9c-1.7,0-2.2-0.8-2.2-3.2c0-2.4,0.5-3.2,2.1-3.2
		c0.7,0,1.3,0.1,1.7,0.9h0v-3.3H39V74h-0.8V73.2z M36.7,73.3c1.3,0,1.5-0.5,1.5-2.7c0-1.5-0.4-2-1.5-2c-1.2,0-1.5,0.3-1.5,2.4
		S35.5,73.3,36.7,73.3z"/>
	<path id="XMLID_303_" d="M40.5,65.3h0.8v1h-0.8V65.3z M40.5,67.9h0.8V74h-0.8V67.9z"/>
	<path id="XMLID_306_" d="M47,74h-0.8v-0.8h0c-0.4,0.7-0.8,0.9-1.7,0.9c-1.4,0-1.8-0.7-1.8-1.9v-4.3h0.8V72c0,0.7,0.2,1.4,1.2,1.4
		c0.9,0,1.6-0.4,1.6-1.7v-3.9H47V74z"/>
	<path id="XMLID_308_" d="M48.3,67.9h0.8v0.9h0c0.4-0.7,0.8-1,1.6-1c0.8,0,1.4,0.2,1.8,1c0.5-0.7,1-1,1.8-1c1.2,0,1.8,0.6,1.8,1.8
		V74h-0.8v-4c0-1.2-0.5-1.5-1.3-1.5c-1,0-1.5,0.4-1.5,1.6V74h-0.8v-4.2c0-0.9-0.4-1.2-1.2-1.2c-1.1,0-1.5,0.7-1.5,1.9V74h-0.8V67.9z
		"/>
	<path id="XMLID_310_" d="M25.1,80.3h0.8v7.8h3.7V89h-4.5V80.3z"/>
	<path id="XMLID_312_" d="M34.1,88.5c-0.4,0.5-0.9,0.6-1.8,0.6c-1.6,0-1.9-0.7-1.9-1.9c0-1.2,0.3-1.9,1.9-1.9c1.2,0,1.4,0.1,1.7,0.6
		h0v-1.1c0-0.9-0.1-1.2-1.4-1.2c-1.3,0-1.3,0.3-1.3,1.1h-0.8v-0.3c0-0.7,0.2-1.5,2.1-1.5c1.7,0,2.1,0.6,2.1,1.7V89h-0.7V88.5z
		 M32.7,88.3c1,0,1.5-0.3,1.5-1.2S33.7,86,32.7,86c-1,0-1.5,0.3-1.5,1.2S31.6,88.3,32.7,88.3z"/>
	<path id="XMLID_315_" d="M36.1,82.9h0.8v0.7h0c0.3-0.6,0.6-0.8,1.4-0.8c1,0,1.4,0.4,1.4,1.6v0.5H39c0-1.1-0.1-1.4-1-1.4
		c-0.8,0-1.2,0.4-1.2,1.3V89h-0.8V82.9z"/>
	<path id="XMLID_317_" d="M44.3,87.9L44.3,87.9c-0.3,0.7-0.9,0.9-1.6,0.9c-2,0-2.1-1.3-2.1-3c0-1.7,0.1-3,2.1-3
		c0.8,0,1.3,0.2,1.6,0.9h0v-0.8H45v6.1c0,1.8-0.6,2.3-2.4,2.3c-1.2,0-1.9-0.4-1.9-1.7h0.8c0,0.7,0.3,0.9,1.3,0.9
		c1.2,0,1.5-0.3,1.5-1.7V87.9z M42.7,88c1.2,0,1.5-0.5,1.5-2.2c0-1.7-0.3-2.2-1.5-2.2c-1.2,0-1.3,0.6-1.3,2.2S41.5,88,42.7,88z"/>
	<path id="XMLID_320_" d="M47,86.1v0.6c0,1.3,0.2,1.7,1.3,1.7c1.2,0,1.5,0,1.5-1.2h0.8v0.2c0,1.2-0.3,1.7-2.1,1.7
		c-2,0-2.3-0.7-2.3-3.2c0-2.5,0.4-3.2,2.3-3.2c1.8,0,2.1,0.7,2.1,2.4v0.9H47z M49.8,85.4c0-1.3,0-1.9-1.4-1.9
		c-1.4,0-1.4,0.6-1.4,1.9H49.8z"/>
	<path id="XMLID_323_" d="M15.1,99.6l-2.4-4.3h0.9l2.1,3.7l2.1-3.7h0.9l-2.5,4.3l2.6,4.4h-1l-2.2-3.9l-2.2,3.9h-1L15.1,99.6z"/>
	<path id="XMLID_325_" d="M20,98.6h-0.6v-0.7H20v-1.4h0.8v1.4h2v0.7h-2v4.1c0,0.5,0.2,0.7,0.7,0.7c0.6,0,0.8-0.1,0.8-1.5h0.7
		c0,2-0.6,2.2-1.5,2.2c-1.1,0-1.4-0.3-1.4-1.3V98.6z"/>
	<path id="XMLID_327_" d="M23.8,97.9h0.8v0.7h0c0.3-0.6,0.6-0.8,1.4-0.8c1,0,1.4,0.4,1.4,1.6v0.5h-0.7c0-1.1-0.1-1.4-1-1.4
		c-0.8,0-1.2,0.4-1.2,1.3v4.3h-0.8V97.9z"/>
	<path id="XMLID_329_" d="M31.8,103.5c-0.4,0.5-0.9,0.6-1.8,0.6c-1.6,0-1.9-0.7-1.9-1.9c0-1.2,0.3-1.9,1.9-1.9
		c1.2,0,1.4,0.1,1.7,0.6h0v-1.1c0-0.9-0.1-1.2-1.4-1.2c-1.3,0-1.3,0.3-1.3,1.1h-0.8v-0.3c0-0.7,0.2-1.5,2.1-1.5
		c1.7,0,2.1,0.6,2.1,1.7v4.5h-0.7V103.5z M30.3,103.3c1,0,1.5-0.3,1.5-1.2s-0.4-1.2-1.5-1.2c-1,0-1.5,0.3-1.5,1.2
		S29.3,103.3,30.3,103.3z"/>
	<path id="XMLID_332_" d="M37.2,95.3H38v7.8h3.7v0.9h-4.5V95.3z"/>
	<path id="XMLID_334_" d="M46.2,103.5c-0.4,0.5-0.9,0.6-1.8,0.6c-1.6,0-1.9-0.7-1.9-1.9c0-1.2,0.3-1.9,1.9-1.9
		c1.2,0,1.4,0.1,1.7,0.6h0v-1.1c0-0.9-0.1-1.2-1.4-1.2c-1.3,0-1.3,0.3-1.3,1.1h-0.8v-0.3c0-0.7,0.2-1.5,2.1-1.5
		c1.7,0,2.1,0.6,2.1,1.7v4.5h-0.7V103.5z M44.8,103.3c1,0,1.5-0.3,1.5-1.2s-0.4-1.2-1.5-1.2c-1,0-1.5,0.3-1.5,1.2
		S43.8,103.3,44.8,103.3z"/>
	<path id="XMLID_337_" d="M48.2,97.9H49v0.7h0c0.3-0.6,0.6-0.8,1.4-0.8c1,0,1.4,0.4,1.4,1.6v0.5h-0.7c0-1.1-0.1-1.4-1-1.4
		c-0.8,0-1.2,0.4-1.2,1.3v4.3h-0.8V97.9z"/>
	<path id="XMLID_339_" d="M56.4,102.9L56.4,102.9c-0.3,0.7-0.9,0.9-1.6,0.9c-2,0-2.1-1.3-2.1-3c0-1.7,0.1-3,2.1-3
		c0.8,0,1.3,0.2,1.6,0.9h0v-0.8h0.8v6.1c0,1.8-0.6,2.3-2.4,2.3c-1.2,0-1.9-0.4-1.9-1.7h0.8c0,0.7,0.3,0.9,1.3,0.9
		c1.2,0,1.5-0.3,1.5-1.7V102.9z M54.8,103c1.2,0,1.5-0.5,1.5-2.2c0-1.7-0.3-2.2-1.5-2.2c-1.2,0-1.3,0.6-1.3,2.2S53.6,103,54.8,103z"
		/>
	<path id="XMLID_342_" d="M59.1,101.1v0.6c0,1.3,0.2,1.7,1.3,1.7c1.2,0,1.5,0,1.5-1.2h0.8v0.2c0,1.2-0.3,1.7-2.1,1.7
		c-2,0-2.3-0.7-2.3-3.2c0-2.5,0.4-3.2,2.3-3.2c1.8,0,2.1,0.7,2.1,2.4v0.9H59.1z M61.9,100.4c0-1.3,0-1.9-1.4-1.9s-1.4,0.6-1.4,1.9
		H61.9z"/>
	<path id="XMLID_345_" d="M26,110.3h0.8v6.8c0,1.6-0.8,1.9-2.3,1.9s-2.3-0.4-2.3-1.9v-1.3h0.8v1.2c0,0.9,0.3,1.1,1.4,1.1
		s1.4-0.2,1.4-1.1V110.3z"/>
	<path id="XMLID_347_" d="M32.5,119h-0.8v-0.8h0c-0.4,0.7-0.8,0.9-1.7,0.9c-1.4,0-1.8-0.7-1.8-1.9v-4.3H29v4.1
		c0,0.7,0.2,1.4,1.2,1.4c0.9,0,1.6-0.4,1.6-1.7v-3.9h0.8V119z"/>
	<path id="XMLID_349_" d="M33.8,112.9h0.8v0.9h0c0.4-0.7,0.8-1,1.6-1c0.8,0,1.4,0.2,1.8,1c0.5-0.7,1-1,1.8-1c1.2,0,1.8,0.6,1.8,1.8
		v4.4h-0.8v-4c0-1.2-0.5-1.5-1.3-1.5c-1,0-1.5,0.4-1.5,1.6v3.9h-0.8v-4.2c0-0.9-0.4-1.2-1.2-1.2c-1.1,0-1.5,0.7-1.5,1.9v3.5h-0.8
		V112.9z"/>
	<path id="XMLID_351_" d="M42.9,110.3h0.8v3.3h0c0.4-0.7,1-0.9,1.7-0.9c1.6,0,2.1,0.8,2.1,3.2c0,2.4-0.5,3.2-2.2,3.2
		c-0.9,0-1.3-0.3-1.6-0.9h0v0.8h-0.8V110.3z M45.2,113.6c-1.1,0-1.5,0.5-1.5,2c0,2.3,0.2,2.7,1.5,2.7c1.2,0,1.5-0.3,1.5-2.4
		S46.4,113.6,45.2,113.6z"/>
	<path id="XMLID_354_" d="M50.8,112.8c2,0,2.3,0.7,2.3,3.2c0,2.5-0.3,3.2-2.3,3.2c-2,0-2.3-0.6-2.3-3.2
		C48.5,113.5,48.8,112.8,50.8,112.8z M50.8,118.4c1.2,0,1.4-0.2,1.4-2.5c0-2.3-0.2-2.5-1.4-2.5c-1.2,0-1.4,0.2-1.4,2.5
		C49.4,118.2,49.6,118.4,50.8,118.4z"/>
</g>
<line id="XMLID_6_" fill="none" stroke="#000000" stroke-miterlimit="10" x1="77.8" y1="24.6" x2="77.8" y2="47.4"/>
<line id="XMLID_4_" fill="none" stroke="#000000" stroke-miterlimit="10" x1="147.6" y1="24.6" x2="147.6" y2="47.4"/>
<line id="XMLID_8_" fill="none" stroke="#000000" stroke-miterlimit="10" x1="222.8" y1="24.6" x2="222.8" y2="47.4"/>
<line id="XMLID_7_" fill="none" stroke="#000000" stroke-miterlimit="10" x1="290.2" y1="24.6" x2="290.2" y2="47.4"/>
<line id="XMLID_9_" fill="none" stroke="#000000" stroke-miterlimit="10" x1="353" y1="24.6" x2="353" y2="47.4"/>
<line id="XMLID_19_" fill="none" stroke="#000000" stroke-width="0.5" stroke-miterlimit="10" x1="77.8" y1="47.4" x2="77.8" y2="123.4"/>
<line id="XMLID_18_" fill="none" stroke="#000000" stroke-width="0.5" stroke-miterlimit="10" x1="147.6" y1="47.4" x2="147.6" y2="123.4"/>
<line id="XMLID_17_" fill="none" stroke="#000000" stroke-width="0.5" stroke-miterlimit="10" x1="222.8" y1="47.4" x2="222.8" y2="123.4"/>
<line id="XMLID_16_" fill="none" stroke="#000000" stroke-width="0.5" stroke-miterlimit="10" x1="290.2" y1="47.4" x2="290.2" y2="123.4"/>
<line id="XMLID_15_" fill="none" stroke="#000000" stroke-width="0.5" stroke-miterlimit="10" x1="353" y1="47.4" x2="353" y2="123.4"/>
<g id="XMLID_169_">
	<path id="XMLID_170_" d="M102.4,39l1.4-9.1h1.4l-0.5,3.5l-1.2,6.6h-2l-1-6.4l-1,6.4h-2l-1.2-6.6l-0.5-3.5h1.4l1.4,9.1l1.4-9.1h1.4
		L102.4,39z"/>
	<path id="XMLID_172_" d="M106.2,29.9h4.1V31h-2.7v3.3h2.4v1.2h-2.4v3.3h2.7V40h-4.1V29.9z"/>
	<path id="XMLID_174_" d="M111.5,29.9h1.4V40h-1.4V29.9z"/>
	<path id="XMLID_176_" d="M118.9,38.2c0,1.4-0.8,2-2.3,2c-1.5,0-2.3-0.7-2.3-2v-6.4c0-1.4,0.8-2,2.3-2s2.3,0.7,2.3,2V33h-1.4v-1.3
		c0-0.6-0.3-0.9-0.9-0.9h0c-0.6,0-0.9,0.3-0.9,0.9v6.4c0,0.6,0.3,0.9,0.9,0.9s0.9-0.3,0.9-0.9v-2.6h-0.9v-1.2h2.2V38.2z"/>
	<path id="XMLID_178_" d="M120.3,29.9h1.4v4.5h1.9v-4.5h1.4V40h-1.4v-4.5h-1.9V40h-1.4V29.9z"/>
	<path id="XMLID_180_" d="M130.5,29.9V31h-1.6v9h-1.4v-9h-1.6v-1.2H130.5z"/>
	<path id="XMLID_182_" d="M94.1,54.6c1.9,0,2.2-0.1,2.2-1.6c0-1,0-1.3-1.7-1.3c-1.2,0-1.7,0-1.7,1.1v0.6h-0.7v-0.7
		c0-1.7,0.9-1.8,2.3-1.8c2.3,0,2.5,0.6,2.5,2.2c0,1-0.2,1.6-0.9,1.8v0c0.6,0.2,1,0.4,1,1.8c0,1.9-0.2,2.4-2.5,2.4
		c-2.1,0-2.6-0.4-2.6-2.1v-0.6h0.7c0,1.7,0,1.9,1.8,1.9c1.7,0,1.8-0.2,1.8-1.6c0-1.4-0.2-1.4-2.2-1.4V54.6z"/>
	<path id="XMLID_184_" d="M99.1,54.9L99.1,54.9c-0.7-0.3-0.9-0.8-0.9-1.8v-0.3c0-1.6,0.6-1.8,2.4-1.8c1.8,0,2.4,0.2,2.4,1.8v0.3
		c0,0.9-0.1,1.5-0.9,1.8v0c0.9,0.3,1,0.8,1,2c0,2-0.7,2.2-2.5,2.2c-1.8,0-2.5-0.2-2.5-2.2C98.1,55.7,98.2,55.2,99.1,54.9z
		 M100.7,58.3c1.5,0,1.8-0.2,1.8-1.5c0-1.4-0.2-1.5-1.8-1.5c-1.5,0-1.8,0.2-1.8,1.5C98.9,58.2,99.1,58.3,100.7,58.3z M100.7,54.5
		c1.7,0,1.7-0.3,1.7-1.4s0-1.4-1.7-1.4s-1.7,0.3-1.7,1.4S98.9,54.5,100.7,54.5z"/>
	<path id="XMLID_188_" d="M110.8,58L110.8,58c-0.3,0.6-0.8,0.8-1.5,0.8c-1.8,0-1.9-1.2-1.9-2.8s0.1-2.8,1.9-2.8
		c0.7,0,1.2,0.2,1.5,0.8h0v-0.8h0.7V59c0,1.7-0.5,2.1-2.2,2.1c-1.1,0-1.8-0.4-1.7-1.6h0.7c0,0.7,0.3,0.9,1.2,0.9
		c1.1,0,1.4-0.2,1.4-1.6V58z M109.4,58.1c1.1,0,1.4-0.5,1.4-2s-0.3-2-1.4-2c-1.1,0-1.2,0.6-1.2,2C108.1,57.5,108.2,58.1,109.4,58.1z
		"/>
	<path id="XMLID_191_" d="M112.6,53.4h0.7v0.7h0c0.3-0.5,0.6-0.8,1.3-0.8c0.9,0,1.3,0.4,1.3,1.5v0.5h-0.6c0-1-0.1-1.3-0.9-1.3
		c-0.7,0-1.1,0.4-1.1,1.2V59h-0.7V53.4z"/>
	<path id="XMLID_193_" d="M120,58.5c-0.4,0.4-0.8,0.6-1.6,0.6c-1.4,0-1.7-0.7-1.7-1.8c0-1.1,0.3-1.8,1.7-1.8c1.1,0,1.3,0.1,1.6,0.5
		h0v-1c0-0.8-0.1-1.1-1.2-1.1c-1.2,0-1.2,0.3-1.2,1h-0.7v-0.3c0-0.7,0.2-1.3,1.9-1.3c1.6,0,1.9,0.5,1.9,1.6V59H120V58.5z
		 M118.7,58.4c0.9,0,1.3-0.2,1.3-1.1c0-0.9-0.4-1.1-1.3-1.1s-1.3,0.2-1.3,1.1C117.3,58.2,117.7,58.4,118.7,58.4z"/>
	<path id="XMLID_196_" d="M121.8,53.4h0.7v0.8h0c0.4-0.6,0.7-0.9,1.5-0.9c0.7,0,1.3,0.2,1.6,0.9c0.4-0.7,0.9-0.9,1.7-0.9
		c1.1,0,1.7,0.5,1.7,1.7v4h-0.7v-3.6c0-1.1-0.5-1.4-1.2-1.4c-0.9,0-1.4,0.4-1.4,1.5V59H125v-3.9c0-0.8-0.3-1.1-1.1-1.1
		c-1,0-1.4,0.6-1.4,1.8V59h-0.7V53.4z"/>
	<path id="XMLID_198_" d="M130.8,57.3c0,1,0.2,1.2,1.2,1.2c1.1,0,1.3-0.2,1.3-1.1c0-0.7-0.1-0.8-1.4-0.9c-1.4-0.1-1.8-0.3-1.8-1.5
		c0-1.2,0.2-1.6,1.9-1.6c1.6,0,2,0.4,2,1.6h-0.7c0-0.9-0.2-0.9-1.3-0.9c-1,0-1.2,0.1-1.2,1c0,0.8,0.1,0.9,1.3,0.9
		c1.7,0.1,1.9,0.2,1.9,1.5c0,1.3-0.3,1.8-2.1,1.8c-1.3,0-1.9-0.2-1.9-1.8H130.8z"/>
	<path id="XMLID_200_" d="M95.5,72.2h-3.8v-1.1l3.4-5.1h1.1v5.4h1v0.8h-1V74h-0.8V72.2z M95.5,66.8L95.5,66.8l-3.1,4.6h3.1V66.8z"/>
	<path id="XMLID_203_" d="M101.6,72.2h-3.8v-1.1l3.4-5.1h1.1v5.4h1v0.8h-1V74h-0.8V72.2z M101.6,66.8L101.6,66.8l-3.1,4.6h3.1V66.8z
		"/>
	<path id="XMLID_206_" d="M110.8,73L110.8,73c-0.3,0.6-0.8,0.8-1.5,0.8c-1.8,0-1.9-1.2-1.9-2.8s0.1-2.8,1.9-2.8
		c0.7,0,1.2,0.2,1.5,0.8h0v-0.8h0.7V74c0,1.7-0.5,2.1-2.2,2.1c-1.1,0-1.8-0.4-1.7-1.6h0.7c0,0.7,0.3,0.9,1.2,0.9
		c1.1,0,1.4-0.2,1.4-1.6V73z M109.4,73.1c1.1,0,1.4-0.5,1.4-2s-0.3-2-1.4-2c-1.1,0-1.2,0.6-1.2,2C108.1,72.5,108.2,73.1,109.4,73.1z
		"/>
	<path id="XMLID_209_" d="M112.6,68.4h0.7v0.7h0c0.3-0.5,0.6-0.8,1.3-0.8c0.9,0,1.3,0.4,1.3,1.5v0.5h-0.6c0-1-0.1-1.3-0.9-1.3
		c-0.7,0-1.1,0.4-1.1,1.2V74h-0.7V68.4z"/>
	<path id="XMLID_211_" d="M120,73.5c-0.4,0.4-0.8,0.6-1.6,0.6c-1.4,0-1.7-0.7-1.7-1.8c0-1.1,0.3-1.8,1.7-1.8c1.1,0,1.3,0.1,1.6,0.5
		h0v-1c0-0.8-0.1-1.1-1.2-1.1c-1.2,0-1.2,0.3-1.2,1h-0.7v-0.3c0-0.7,0.2-1.3,1.9-1.3c1.6,0,1.9,0.5,1.9,1.6V74H120V73.5z
		 M118.7,73.4c0.9,0,1.3-0.2,1.3-1.1c0-0.9-0.4-1.1-1.3-1.1s-1.3,0.2-1.3,1.1C117.3,73.2,117.7,73.4,118.7,73.4z"/>
	<path id="XMLID_214_" d="M121.8,68.4h0.7v0.8h0c0.4-0.6,0.7-0.9,1.5-0.9c0.7,0,1.3,0.2,1.6,0.9c0.4-0.7,0.9-0.9,1.7-0.9
		c1.1,0,1.7,0.5,1.7,1.7v4h-0.7v-3.6c0-1.1-0.5-1.4-1.2-1.4c-0.9,0-1.4,0.4-1.4,1.5V74H125v-3.9c0-0.8-0.3-1.1-1.1-1.1
		c-1,0-1.4,0.6-1.4,1.8V74h-0.7V68.4z"/>
	<path id="XMLID_216_" d="M130.8,72.3c0,1,0.2,1.2,1.2,1.2c1.1,0,1.3-0.2,1.3-1.1c0-0.7-0.1-0.8-1.4-0.9c-1.4-0.1-1.8-0.3-1.8-1.5
		c0-1.2,0.2-1.6,1.9-1.6c1.6,0,2,0.4,2,1.6h-0.7c0-0.9-0.2-0.9-1.3-0.9c-1,0-1.2,0.1-1.2,1c0,0.8,0.1,0.9,1.3,0.9
		c1.7,0.1,1.9,0.2,1.9,1.5c0,1.3-0.3,1.8-2.1,1.8c-1.3,0-1.9-0.2-1.9-1.8H130.8z"/>
	<path id="XMLID_218_" d="M92.2,81h4.6v0.7H93v2.4h0c0.4-0.5,0.8-0.6,1.7-0.6c2,0,2.3,0.8,2.3,2.8c0,2.4-0.5,2.8-2.6,2.8
		c-1.3,0-2.4-0.2-2.4-1.8v-0.6h0.7c0,1.3,0.1,1.6,1.8,1.6c1.7,0,1.7-0.3,1.7-2c0-1.5,0-2-1.8-2c-1,0-1.4,0.1-1.6,0.7h-0.7V81z"/>
	<path id="XMLID_220_" d="M103.2,86.6c0,2.2-0.7,2.5-2.5,2.5s-2.5-0.3-2.5-2.5v-3.2c0-2.2,0.7-2.5,2.5-2.5s2.5,0.3,2.5,2.5V86.6z
		 M102.4,83.2c0-1.5-0.4-1.5-1.8-1.5c-1.4,0-1.8,0-1.8,1.5v3.7c0,1.5,0.4,1.5,1.8,1.5c1.4,0,1.8,0,1.8-1.5V83.2z"/>
	<path id="XMLID_223_" d="M110.8,88L110.8,88c-0.3,0.6-0.8,0.8-1.5,0.8c-1.8,0-1.9-1.2-1.9-2.8s0.1-2.8,1.9-2.8
		c0.7,0,1.2,0.2,1.5,0.8h0v-0.8h0.7V89c0,1.7-0.5,2.1-2.2,2.1c-1.1,0-1.8-0.4-1.7-1.6h0.7c0,0.7,0.3,0.9,1.2,0.9
		c1.1,0,1.4-0.2,1.4-1.6V88z M109.4,88.1c1.1,0,1.4-0.5,1.4-2s-0.3-2-1.4-2c-1.1,0-1.2,0.6-1.2,2C108.1,87.5,108.2,88.1,109.4,88.1z
		"/>
	<path id="XMLID_226_" d="M112.6,83.4h0.7v0.7h0c0.3-0.5,0.6-0.8,1.3-0.8c0.9,0,1.3,0.4,1.3,1.5v0.5h-0.6c0-1-0.1-1.3-0.9-1.3
		c-0.7,0-1.1,0.4-1.1,1.2V89h-0.7V83.4z"/>
	<path id="XMLID_228_" d="M120,88.5c-0.4,0.4-0.8,0.6-1.6,0.6c-1.4,0-1.7-0.7-1.7-1.8c0-1.1,0.3-1.8,1.7-1.8c1.1,0,1.3,0.1,1.6,0.5
		h0v-1c0-0.8-0.1-1.1-1.2-1.1c-1.2,0-1.2,0.3-1.2,1h-0.7v-0.3c0-0.7,0.2-1.3,1.9-1.3c1.6,0,1.9,0.5,1.9,1.6V89H120V88.5z
		 M118.7,88.4c0.9,0,1.3-0.2,1.3-1.1c0-0.9-0.4-1.1-1.3-1.1s-1.3,0.2-1.3,1.1C117.3,88.2,117.7,88.4,118.7,88.4z"/>
	<path id="XMLID_231_" d="M121.8,83.4h0.7v0.8h0c0.4-0.6,0.7-0.9,1.5-0.9c0.7,0,1.3,0.2,1.6,0.9c0.4-0.7,0.9-0.9,1.7-0.9
		c1.1,0,1.7,0.5,1.7,1.7v4h-0.7v-3.6c0-1.1-0.5-1.4-1.2-1.4c-0.9,0-1.4,0.4-1.4,1.5V89H125v-3.9c0-0.8-0.3-1.1-1.1-1.1
		c-1,0-1.4,0.6-1.4,1.8V89h-0.7V83.4z"/>
	<path id="XMLID_233_" d="M130.8,87.3c0,1,0.2,1.2,1.2,1.2c1.1,0,1.3-0.2,1.3-1.1c0-0.7-0.1-0.8-1.4-0.9c-1.4-0.1-1.8-0.3-1.8-1.5
		c0-1.2,0.2-1.6,1.9-1.6c1.6,0,2,0.4,2,1.6h-0.7c0-0.9-0.2-0.9-1.3-0.9c-1,0-1.2,0.1-1.2,1c0,0.8,0.1,0.9,1.3,0.9
		c1.7,0.1,1.9,0.2,1.9,1.5c0,1.3-0.3,1.8-2.1,1.8c-1.3,0-1.9-0.2-1.9-1.8H130.8z"/>
	<path id="XMLID_235_" d="M92.2,96h4.6v0.7H93v2.4h0c0.4-0.5,0.8-0.6,1.7-0.6c2,0,2.3,0.8,2.3,2.8c0,2.4-0.5,2.8-2.6,2.8
		c-1.3,0-2.4-0.2-2.4-1.8v-0.6h0.7c0,1.3,0.1,1.6,1.8,1.6c1.7,0,1.7-0.3,1.7-2c0-1.5,0-2-1.8-2c-1,0-1.4,0.1-1.6,0.7h-0.7V96z"/>
	<path id="XMLID_237_" d="M102.3,98c-0.1-1.1-0.1-1.3-1.6-1.3c-1.4,0-1.8,0.1-1.8,1.6v1.6h0c0.5-0.6,0.9-0.7,1.9-0.7
		c1.9,0,2.4,0.4,2.4,2.5c0,2.2-0.7,2.5-2.5,2.5s-2.5-0.3-2.5-2.5v-3.2c0-2.2,0.7-2.5,2.5-2.5s2.4,0.4,2.4,2H102.3z M100.7,99.8
		c-1.6,0-1.8,0.2-1.8,1.7c0,1.6,0.3,1.7,1.8,1.7c1.5,0,1.8-0.1,1.8-1.7S102.1,99.8,100.7,99.8z"/>
	<path id="XMLID_240_" d="M110.8,103L110.8,103c-0.3,0.6-0.8,0.8-1.5,0.8c-1.8,0-1.9-1.2-1.9-2.8s0.1-2.8,1.9-2.8
		c0.7,0,1.2,0.2,1.5,0.8h0v-0.8h0.7v5.6c0,1.7-0.5,2.1-2.2,2.1c-1.1,0-1.8-0.4-1.7-1.6h0.7c0,0.7,0.3,0.9,1.2,0.9
		c1.1,0,1.4-0.2,1.4-1.6V103z M109.4,103.1c1.1,0,1.4-0.5,1.4-2s-0.3-2-1.4-2c-1.1,0-1.2,0.6-1.2,2
		C108.1,102.5,108.2,103.1,109.4,103.1z"/>
	<path id="XMLID_243_" d="M112.6,98.4h0.7v0.7h0c0.3-0.5,0.6-0.8,1.3-0.8c0.9,0,1.3,0.4,1.3,1.5v0.5h-0.6c0-1-0.1-1.3-0.9-1.3
		c-0.7,0-1.1,0.4-1.1,1.2v3.9h-0.7V98.4z"/>
	<path id="XMLID_245_" d="M120,103.5c-0.4,0.4-0.8,0.6-1.6,0.6c-1.4,0-1.7-0.7-1.7-1.8c0-1.1,0.3-1.8,1.7-1.8c1.1,0,1.3,0.1,1.6,0.5
		h0v-1c0-0.8-0.1-1.1-1.2-1.1c-1.2,0-1.2,0.3-1.2,1h-0.7v-0.3c0-0.7,0.2-1.3,1.9-1.3c1.6,0,1.9,0.5,1.9,1.6v4.1H120V103.5z
		 M118.7,103.4c0.9,0,1.3-0.2,1.3-1.1c0-0.9-0.4-1.1-1.3-1.1s-1.3,0.2-1.3,1.1C117.3,103.2,117.7,103.4,118.7,103.4z"/>
	<path id="XMLID_248_" d="M121.8,98.4h0.7v0.8h0c0.4-0.6,0.7-0.9,1.5-0.9c0.7,0,1.3,0.2,1.6,0.9c0.4-0.7,0.9-0.9,1.7-0.9
		c1.1,0,1.7,0.5,1.7,1.7v4h-0.7v-3.6c0-1.1-0.5-1.4-1.2-1.4c-0.9,0-1.4,0.4-1.4,1.5v3.5H125v-3.9c0-0.8-0.3-1.1-1.1-1.1
		c-1,0-1.4,0.6-1.4,1.8v3.2h-0.7V98.4z"/>
	<path id="XMLID_250_" d="M130.8,102.3c0,1,0.2,1.2,1.2,1.2c1.1,0,1.3-0.2,1.3-1.1c0-0.7-0.1-0.8-1.4-0.9c-1.4-0.1-1.8-0.3-1.8-1.5
		c0-1.2,0.2-1.6,1.9-1.6c1.6,0,2,0.4,2,1.6h-0.7c0-0.9-0.2-0.9-1.3-0.9c-1,0-1.2,0.1-1.2,1c0,0.8,0.1,0.9,1.3,0.9
		c1.7,0.1,1.9,0.2,1.9,1.5c0,1.3-0.3,1.8-2.1,1.8c-1.3,0-1.9-0.2-1.9-1.8H130.8z"/>
	<path id="XMLID_252_" d="M96.2,113c-0.1-1.1-0.1-1.3-1.6-1.3c-1.4,0-1.8,0.1-1.8,1.6v1.6h0c0.5-0.6,0.9-0.7,1.9-0.7
		c1.9,0,2.4,0.4,2.4,2.5c0,2.2-0.7,2.5-2.5,2.5s-2.5-0.3-2.5-2.5v-3.2c0-2.2,0.7-2.5,2.5-2.5s2.4,0.4,2.4,2H96.2z M94.5,114.8
		c-1.6,0-1.8,0.2-1.8,1.7c0,1.6,0.3,1.7,1.8,1.7c1.5,0,1.8-0.1,1.8-1.7S96,114.8,94.5,114.8z"/>
	<path id="XMLID_255_" d="M100.2,114.6c1.9,0,2.2-0.1,2.2-1.6c0-1,0-1.3-1.7-1.3c-1.2,0-1.7,0-1.7,1.1v0.6h-0.7v-0.7
		c0-1.7,0.9-1.8,2.3-1.8c2.3,0,2.5,0.6,2.5,2.2c0,1-0.2,1.6-0.9,1.8v0c0.6,0.2,1,0.4,1,1.8c0,1.9-0.2,2.4-2.5,2.4
		c-2.1,0-2.6-0.4-2.6-2.1v-0.6h0.7c0,1.7,0,1.9,1.8,1.9c1.7,0,1.8-0.2,1.8-1.6c0-1.4-0.2-1.4-2.2-1.4V114.6z"/>
	<path id="XMLID_257_" d="M110.8,118L110.8,118c-0.3,0.6-0.8,0.8-1.5,0.8c-1.8,0-1.9-1.2-1.9-2.8s0.1-2.8,1.9-2.8
		c0.7,0,1.2,0.2,1.5,0.8h0v-0.8h0.7v5.6c0,1.7-0.5,2.1-2.2,2.1c-1.1,0-1.8-0.4-1.7-1.6h0.7c0,0.7,0.3,0.9,1.2,0.9
		c1.1,0,1.4-0.2,1.4-1.6V118z M109.4,118.1c1.1,0,1.4-0.5,1.4-2s-0.3-2-1.4-2c-1.1,0-1.2,0.6-1.2,2
		C108.1,117.5,108.2,118.1,109.4,118.1z"/>
	<path id="XMLID_260_" d="M112.6,113.4h0.7v0.7h0c0.3-0.5,0.6-0.8,1.3-0.8c0.9,0,1.3,0.4,1.3,1.5v0.5h-0.6c0-1-0.1-1.3-0.9-1.3
		c-0.7,0-1.1,0.4-1.1,1.2v3.9h-0.7V113.4z"/>
	<path id="XMLID_262_" d="M120,118.5c-0.4,0.4-0.8,0.6-1.6,0.6c-1.4,0-1.7-0.7-1.7-1.8c0-1.1,0.3-1.8,1.7-1.8c1.1,0,1.3,0.1,1.6,0.5
		h0v-1c0-0.8-0.1-1.1-1.2-1.1c-1.2,0-1.2,0.3-1.2,1h-0.7v-0.3c0-0.7,0.2-1.3,1.9-1.3c1.6,0,1.9,0.5,1.9,1.6v4.1H120V118.5z
		 M118.7,118.4c0.9,0,1.3-0.2,1.3-1.1c0-0.9-0.4-1.1-1.3-1.1s-1.3,0.2-1.3,1.1C117.3,118.2,117.7,118.4,118.7,118.4z"/>
	<path id="XMLID_265_" d="M121.8,113.4h0.7v0.8h0c0.4-0.6,0.7-0.9,1.5-0.9c0.7,0,1.3,0.2,1.6,0.9c0.4-0.7,0.9-0.9,1.7-0.9
		c1.1,0,1.7,0.5,1.7,1.7v4h-0.7v-3.6c0-1.1-0.5-1.4-1.2-1.4c-0.9,0-1.4,0.4-1.4,1.5v3.5H125v-3.9c0-0.8-0.3-1.1-1.1-1.1
		c-1,0-1.4,0.6-1.4,1.8v3.2h-0.7V113.4z"/>
	<path id="XMLID_267_" d="M130.8,117.3c0,1,0.2,1.2,1.2,1.2c1.1,0,1.3-0.2,1.3-1.1c0-0.7-0.1-0.8-1.4-0.9c-1.4-0.1-1.8-0.3-1.8-1.5
		c0-1.2,0.2-1.6,1.9-1.6c1.6,0,2,0.4,2,1.6h-0.7c0-0.9-0.2-0.9-1.3-0.9c-1,0-1.2,0.1-1.2,1c0,0.8,0.1,0.9,1.3,0.9
		c1.7,0.1,1.9,0.2,1.9,1.5c0,1.3-0.3,1.8-2.1,1.8c-1.3,0-1.9-0.2-1.9-1.8H130.8z"/>
</g>
<g id="XMLID_122_">
	<path id="XMLID_123_" d="M168.9,38.2c0,1.4-0.8,2-2.3,2c-1.5,0-2.3-0.7-2.3-2v-6.4c0-1.4,0.8-2,2.3-2s2.3,0.7,2.3,2V33h-1.4v-1.3
		c0-0.6-0.3-0.9-0.9-0.9h0c-0.6,0-0.9,0.3-0.9,0.9v6.4c0,0.6,0.3,0.9,0.9,0.9s0.9-0.3,0.9-0.9v-1.2h1.4V38.2z"/>
	<path id="XMLID_125_" d="M174.7,36.5l0.5,3.5h-1.4l-0.3-2.2h-2.1l-0.3,2.2h-1.4l0.5-3.5l1.2-6.6h2L174.7,36.5z M173.3,36.6
		l-0.9-5.7l-0.9,5.7H173.3z"/>
	<path id="XMLID_128_" d="M176.2,40V29.9h1.4v9h2.7V40H176.2z"/>
	<path id="XMLID_130_" d="M185.7,38.2c0,1.4-0.8,2-2.3,2c-1.5,0-2.3-0.7-2.3-2v-6.4c0-1.4,0.8-2,2.3-2s2.3,0.7,2.3,2V38.2z
		 M184.4,31.8c0-0.6-0.3-0.9-0.9-0.9h0c-0.6,0-0.9,0.3-0.9,0.9v6.4c0,0.6,0.3,0.9,0.9,0.9s0.9-0.3,0.9-0.9V31.8z"/>
	<path id="XMLID_133_" d="M187.1,29.9h2.3c1.4,0,2.1,0.7,2.1,2v1.6c0,0.8-0.5,1.4-1.4,1.7l1.9,4.8h-1.5l-1.6-4.6l-0.5,0.1V40h-1.4
		V29.9z M188.5,31v3.3h0.6c0.3,0,0.4,0,0.6-0.1c0.4-0.1,0.6-0.4,0.6-0.8v-1.6c0-0.6-0.3-0.9-0.9-0.9H188.5z"/>
	<path id="XMLID_136_" d="M193,29.9h1.4V40H193V29.9z"/>
	<path id="XMLID_138_" d="M195.9,29.9h4.1V31h-2.7v3.3h2.4v1.2h-2.4v3.3h2.7V40h-4.1V29.9z"/>
	<path id="XMLID_140_" d="M201.2,31.8c0-1.4,0.8-2,2.3-2s2.3,0.7,2.3,2V33h-1.4v-1.3c0-0.6-0.3-0.9-0.9-0.9h0
		c-0.6,0-0.9,0.3-0.9,0.9v0.9c0,0.5,0.6,1.1,1.7,1.8c1,0.6,1.5,1.4,1.5,2.3v1.3c0,1.4-0.8,2-2.3,2c-1.5,0-2.3-0.7-2.3-2v-1.2h1.4
		v1.2c0,0.6,0.3,0.9,0.9,0.9c0.6,0,0.9-0.3,0.9-0.9V37c0-0.6-0.6-1.2-1.7-1.9c-1-0.6-1.5-1.4-1.5-2.3V31.8z"/>
	<path id="XMLID_142_" d="M179.6,51h4.6v0.7h-3.8v2.4h0c0.4-0.5,0.8-0.6,1.7-0.6c2,0,2.3,0.8,2.3,2.8c0,2.4-0.5,2.8-2.6,2.8
		c-1.3,0-2.4-0.2-2.4-1.8v-0.6h0.7c0,1.3,0.1,1.6,1.8,1.6c1.7,0,1.7-0.3,1.7-2c0-1.5,0-2-1.8-2c-1,0-1.4,0.1-1.6,0.7h-0.7V51z"/>
	<path id="XMLID_144_" d="M189,57.2h-3.8v-1.1l3.4-5.1h1.1v5.4h1v0.8h-1V59H189V57.2z M189,51.8L189,51.8l-3.1,4.6h3.1V51.8z"/>
	<path id="XMLID_147_" d="M183.6,68c-0.1-1.1-0.1-1.3-1.6-1.3c-1.4,0-1.8,0.1-1.8,1.6v1.6h0c0.5-0.6,0.9-0.7,1.9-0.7
		c1.9,0,2.4,0.4,2.4,2.5c0,2.2-0.7,2.5-2.5,2.5c-1.8,0-2.5-0.3-2.5-2.5v-3.2c0-2.2,0.7-2.5,2.5-2.5c1.8,0,2.4,0.4,2.4,2H183.6z
		 M182,69.8c-1.6,0-1.8,0.2-1.8,1.7c0,1.6,0.3,1.7,1.8,1.7c1.5,0,1.8-0.1,1.8-1.7S183.5,69.8,182,69.8z"/>
	<path id="XMLID_150_" d="M187.6,69.6c1.9,0,2.2-0.1,2.2-1.6c0-1,0-1.3-1.7-1.3c-1.2,0-1.7,0-1.7,1.1v0.6h-0.7v-0.7
		c0-1.7,0.9-1.8,2.3-1.8c2.3,0,2.5,0.6,2.5,2.2c0,1-0.2,1.6-0.9,1.8v0c0.6,0.2,1,0.4,1,1.8c0,1.9-0.2,2.4-2.5,2.4
		c-2.1,0-2.6-0.4-2.6-2.1v-0.6h0.7c0,1.7,0,1.9,1.8,1.9c1.7,0,1.8-0.2,1.8-1.6c0-1.4-0.2-1.4-2.2-1.4V69.6z"/>
	<path id="XMLID_152_" d="M183.7,81.8h-4.2V81h4.9v1.2L181,89h-0.8L183.7,81.8z"/>
	<path id="XMLID_154_" d="M188.1,81.8L188.1,81.8l-1.7,2.1l-0.5-0.5l1.9-2.4h1v8h-0.8V81.8z"/>
	<path id="XMLID_156_" d="M180.4,99.9L180.4,99.9c-0.7-0.3-0.9-0.8-0.9-1.8v-0.3c0-1.6,0.6-1.8,2.4-1.8c1.8,0,2.4,0.2,2.4,1.8v0.3
		c0,0.9-0.1,1.5-0.9,1.8v0c0.9,0.3,1,0.8,1,2c0,2-0.7,2.2-2.5,2.2c-1.8,0-2.5-0.2-2.5-2.2C179.4,100.7,179.5,100.2,180.4,99.9z
		 M182,103.3c1.5,0,1.8-0.2,1.8-1.5c0-1.4-0.2-1.5-1.8-1.5c-1.5,0-1.8,0.2-1.8,1.5C180.2,103.2,180.5,103.3,182,103.3z M182,99.5
		c1.7,0,1.7-0.3,1.7-1.4s0-1.4-1.7-1.4s-1.7,0.3-1.7,1.4S180.3,99.5,182,99.5z"/>
	<path id="XMLID_160_" d="M190.6,101.6c0,2.2-0.7,2.5-2.5,2.5c-1.8,0-2.5-0.3-2.5-2.5v-3.2c0-2.2,0.7-2.5,2.5-2.5
		c1.8,0,2.5,0.3,2.5,2.5V101.6z M189.8,98.2c0-1.5-0.4-1.5-1.8-1.5c-1.4,0-1.8,0-1.8,1.5v3.7c0,1.5,0.4,1.5,1.8,1.5
		c1.4,0,1.8,0,1.8-1.5V98.2z"/>
	<path id="XMLID_163_" d="M180.3,117c0.1,1.1,0.1,1.3,1.6,1.3c1.4,0,1.8-0.1,1.8-1.6v-1.6h0c-0.5,0.6-0.9,0.7-1.9,0.7
		c-1.9,0-2.4-0.4-2.4-2.5c0-2.2,0.7-2.5,2.5-2.5c1.8,0,2.5,0.3,2.5,2.5v3.2c0,2.2-0.7,2.5-2.5,2.5c-1.8,0-2.4-0.4-2.4-2H180.3z
		 M182,115.2c1.6,0,1.8-0.2,1.8-1.7c0-1.6-0.3-1.7-1.8-1.7c-1.5,0-1.8,0.1-1.8,1.7S180.5,115.2,182,115.2z"/>
	<path id="XMLID_166_" d="M190.6,116.6c0,2.2-0.7,2.5-2.5,2.5c-1.8,0-2.5-0.3-2.5-2.5v-3.2c0-2.2,0.7-2.5,2.5-2.5
		c1.8,0,2.5,0.3,2.5,2.5V116.6z M189.8,113.2c0-1.5-0.4-1.5-1.8-1.5c-1.4,0-1.8,0-1.8,1.5v3.7c0,1.5,0.4,1.5,1.8,1.5
		c1.4,0,1.8,0,1.8-1.5V113.2z"/>
</g>
<g id="XMLID_90_">
	<path id="XMLID_91_" d="M239.3,29.9h2.3c1.4,0,2.1,0.7,2.1,2v1.6c0,1-0.5,1.7-1.5,1.9c-0.2,0.1-0.6,0.1-1.1,0.1h-0.5V40h-1.4V29.9z
		 M240.7,31v3.3h0.6c0.3,0,0.4,0,0.6-0.1c0.4-0.1,0.6-0.4,0.6-0.8v-1.6c0-0.6-0.3-0.9-0.9-0.9H240.7z"/>
	<path id="XMLID_94_" d="M245,29.9h2.3c1.4,0,2.1,0.7,2.1,2v1.6c0,0.8-0.5,1.4-1.4,1.7l1.9,4.8h-1.5l-1.6-4.6l-0.5,0.1V40H245V29.9z
		 M246.3,31v3.3h0.6c0.3,0,0.4,0,0.6-0.1c0.4-0.1,0.6-0.4,0.6-0.8v-1.6c0-0.6-0.3-0.9-0.9-0.9H246.3z"/>
	<path id="XMLID_97_" d="M255,38.2c0,1.4-0.8,2-2.3,2c-1.5,0-2.3-0.7-2.3-2v-6.4c0-1.4,0.8-2,2.3-2s2.3,0.7,2.3,2V38.2z M253.7,31.8
		c0-0.6-0.3-0.9-0.9-0.9h0c-0.6,0-0.9,0.3-0.9,0.9v6.4c0,0.6,0.3,0.9,0.9,0.9s0.9-0.3,0.9-0.9V31.8z"/>
	<path id="XMLID_100_" d="M260.5,29.9V31h-1.6v9h-1.4v-9H256v-1.2H260.5z"/>
	<path id="XMLID_102_" d="M261.6,29.9h4.1V31h-2.7v3.3h2.4v1.2h-2.4v3.3h2.7V40h-4.1V29.9z"/>
	<path id="XMLID_104_" d="M266.9,29.9h1.4V40h-1.4V29.9z"/>
	<path id="XMLID_106_" d="M269.8,29.9h1.4l2,7.3v-7.3l1.2,0V40H273l-1.9-7.1V40h-1.3V29.9z"/>
	<path id="XMLID_108_" d="M254.5,51h4.6v0.7h-3.8v2.4h0c0.4-0.5,0.8-0.6,1.7-0.6c2,0,2.3,0.8,2.3,2.8c0,2.4-0.5,2.8-2.6,2.8
		c-1.3,0-2.4-0.2-2.4-1.8v-0.6h0.7c0,1.3,0.1,1.6,1.8,1.6c1.7,0,1.7-0.3,1.7-2c0-1.5,0-2-1.8-2c-1,0-1.4,0.1-1.6,0.7h-0.7V51z"/>
	<path id="XMLID_110_" d="M258.5,68c-0.1-1.1-0.1-1.3-1.6-1.3c-1.4,0-1.8,0.1-1.8,1.6v1.6h0c0.5-0.6,0.9-0.7,1.9-0.7
		c1.9,0,2.4,0.4,2.4,2.5c0,2.2-0.7,2.5-2.5,2.5s-2.5-0.3-2.5-2.5v-3.2c0-2.2,0.7-2.5,2.5-2.5s2.4,0.4,2.4,2H258.5z M256.9,69.8
		c-1.6,0-1.8,0.2-1.8,1.7c0,1.6,0.3,1.7,1.8,1.7s1.8-0.1,1.8-1.7S258.4,69.8,256.9,69.8z"/>
	<path id="XMLID_113_" d="M258.5,83c-0.1-1.1-0.1-1.3-1.6-1.3c-1.4,0-1.8,0.1-1.8,1.6v1.6h0c0.5-0.6,0.9-0.7,1.9-0.7
		c1.9,0,2.4,0.4,2.4,2.5c0,2.2-0.7,2.5-2.5,2.5s-2.5-0.3-2.5-2.5v-3.2c0-2.2,0.7-2.5,2.5-2.5s2.4,0.4,2.4,2H258.5z M256.9,84.8
		c-1.6,0-1.8,0.2-1.8,1.7c0,1.6,0.3,1.7,1.8,1.7s1.8-0.1,1.8-1.7S258.4,84.8,256.9,84.8z"/>
	<path id="XMLID_116_" d="M258.6,96.8h-4.2V96h4.9v1.2l-3.3,6.8h-0.8L258.6,96.8z"/>
	<path id="XMLID_118_" d="M255.3,114.9L255.3,114.9c-0.7-0.3-0.9-0.8-0.9-1.8v-0.3c0-1.6,0.6-1.8,2.4-1.8c1.8,0,2.4,0.2,2.4,1.8v0.3
		c0,0.9-0.1,1.5-0.9,1.8v0c0.9,0.3,1,0.8,1,2c0,2-0.7,2.2-2.5,2.2c-1.8,0-2.5-0.2-2.5-2.2C254.3,115.7,254.4,115.2,255.3,114.9z
		 M256.9,118.3c1.5,0,1.8-0.2,1.8-1.5c0-1.4-0.2-1.5-1.8-1.5c-1.5,0-1.8,0.2-1.8,1.5C255.1,118.2,255.4,118.3,256.9,118.3z
		 M256.9,114.5c1.7,0,1.7-0.3,1.7-1.4s0-1.4-1.7-1.4c-1.7,0-1.7,0.3-1.7,1.4S255.2,114.5,256.9,114.5z"/>
</g>
<g id="XMLID_60_">
	<path id="XMLID_61_" d="M312.4,38.2c0,1.4-0.8,2-2.3,2c-1.5,0-2.3-0.7-2.3-2v-6.4c0-1.4,0.8-2,2.3-2s2.3,0.7,2.3,2V33H311v-1.3
		c0-0.6-0.3-0.9-0.9-0.9h0c-0.6,0-0.9,0.3-0.9,0.9v6.4c0,0.6,0.3,0.9,0.9,0.9s0.9-0.3,0.9-0.9v-1.2h1.4V38.2z"/>
	<path id="XMLID_63_" d="M318.1,36.5l0.5,3.5h-1.4l-0.3-2.2h-2.1l-0.3,2.2h-1.4l0.5-3.5l1.2-6.6h2L318.1,36.5z M316.8,36.6l-0.9-5.7
		l-0.9,5.7H316.8z"/>
	<path id="XMLID_66_" d="M319.7,29.9h2.3c1.4,0,2.1,0.7,2.1,2v1.6c0,0.8-0.5,1.4-1.4,1.7l1.9,4.8h-1.5l-1.6-4.6l-0.5,0.1V40h-1.4
		V29.9z M321,31v3.3h0.6c0.3,0,0.4,0,0.6-0.1c0.4-0.1,0.6-0.4,0.6-0.8v-1.6c0-0.6-0.3-0.9-0.9-0.9H321z"/>
	<path id="XMLID_69_" d="M325.5,29.9h2.5c1.4,0,2.1,0.7,2.1,2v1.6c0,0.6-0.4,1.1-1.2,1.5c0.8,0.4,1.2,0.8,1.2,1.5V38
		c0,1.4-0.7,2-2.2,2h-2.3V29.9z M326.9,31v3.3h0.7c0.3,0,0.4,0,0.6-0.1c0.4-0.1,0.6-0.4,0.6-0.8v-1.6c0-0.6-0.3-0.9-0.9-0.9H326.9z
		 M326.9,35.5v3.3h0.9c0.6,0,0.9-0.3,0.9-0.9v-1.6c0-0.4-0.2-0.7-0.6-0.8c-0.1,0-0.3-0.1-0.6-0.1H326.9z"/>
	<path id="XMLID_73_" d="M331.3,31.8c0-1.4,0.8-2,2.3-2s2.3,0.7,2.3,2V33h-1.4v-1.3c0-0.6-0.3-0.9-0.9-0.9h0c-0.6,0-0.9,0.3-0.9,0.9
		v0.9c0,0.5,0.6,1.1,1.7,1.8c1,0.6,1.5,1.4,1.5,2.3v1.3c0,1.4-0.8,2-2.3,2c-1.5,0-2.3-0.7-2.3-2v-1.2h1.4v1.2c0,0.6,0.3,0.9,0.9,0.9
		c0.6,0,0.9-0.3,0.9-0.9V37c0-0.6-0.6-1.2-1.7-1.9c-1-0.6-1.5-1.4-1.5-2.3V31.8z"/>
	<path id="XMLID_75_" d="M324.4,56.6c0,2.2-0.7,2.5-2.5,2.5s-2.5-0.3-2.5-2.5v-3.2c0-2.2,0.7-2.5,2.5-2.5s2.5,0.3,2.5,2.5V56.6z
		 M323.6,53.2c0-1.5-0.4-1.5-1.8-1.5s-1.8,0-1.8,1.5v3.7c0,1.5,0.4,1.5,1.8,1.5s1.8,0,1.8-1.5V53.2z"/>
	<path id="XMLID_78_" d="M324.4,71.6c0,2.2-0.7,2.5-2.5,2.5s-2.5-0.3-2.5-2.5v-3.2c0-2.2,0.7-2.5,2.5-2.5s2.5,0.3,2.5,2.5V71.6z
		 M323.6,68.2c0-1.5-0.4-1.5-1.8-1.5s-1.8,0-1.8,1.5v3.7c0,1.5,0.4,1.5,1.8,1.5s1.8,0,1.8-1.5V68.2z"/>
	<path id="XMLID_81_" d="M324.4,86.6c0,2.2-0.7,2.5-2.5,2.5s-2.5-0.3-2.5-2.5v-3.2c0-2.2,0.7-2.5,2.5-2.5s2.5,0.3,2.5,2.5V86.6z
		 M323.6,83.2c0-1.5-0.4-1.5-1.8-1.5s-1.8,0-1.8,1.5v3.7c0,1.5,0.4,1.5,1.8,1.5s1.8,0,1.8-1.5V83.2z"/>
	<path id="XMLID_84_" d="M324.4,101.6c0,2.2-0.7,2.5-2.5,2.5s-2.5-0.3-2.5-2.5v-3.2c0-2.2,0.7-2.5,2.5-2.5s2.5,0.3,2.5,2.5V101.6z
		 M323.6,98.2c0-1.5-0.4-1.5-1.8-1.5s-1.8,0-1.8,1.5v3.7c0,1.5,0.4,1.5,1.8,1.5s1.8,0,1.8-1.5V98.2z"/>
	<path id="XMLID_87_" d="M324.4,116.6c0,2.2-0.7,2.5-2.5,2.5s-2.5-0.3-2.5-2.5v-3.2c0-2.2,0.7-2.5,2.5-2.5s2.5,0.3,2.5,2.5V116.6z
		 M323.6,113.2c0-1.5-0.4-1.5-1.8-1.5s-1.8,0-1.8,1.5v3.7c0,1.5,0.4,1.5,1.8,1.5s1.8,0,1.8-1.5V113.2z"/>
</g>
<g id="XMLID_25_">
	<path id="XMLID_39_" d="M374.3,29.9h4.1V31h-2.7v3.3h2.4v1.2h-2.4V40h-1.4V29.9z"/>
	<path id="XMLID_41_" d="M384,36.5l0.5,3.5h-1.4l-0.3-2.2h-2.1l-0.3,2.2H379l0.5-3.5l1.2-6.6h2L384,36.5z M382.6,36.6l-0.9-5.7
		l-0.9,5.7H382.6z"/>
	<path id="XMLID_44_" d="M389.3,29.9V31h-1.6v9h-1.4v-9h-1.6v-1.2H389.3z"/>
	<path id="XMLID_46_" d="M381.1,57.2h-3.8v-1.1l3.4-5.1h1.1v5.4h1v0.8h-1V59h-0.8V57.2z M381.1,51.8L381.1,51.8l-3.1,4.6h3.1V51.8z"
		/>
	<path id="XMLID_49_" d="M381.1,72.2h-3.8v-1.1l3.4-5.1h1.1v5.4h1v0.8h-1V74h-0.8V72.2z M381.1,66.8L381.1,66.8l-3.1,4.6h3.1V66.8z"
		/>
	<path id="XMLID_52_" d="M377.8,81h4.6v0.7h-3.8v2.4h0c0.4-0.5,0.8-0.6,1.7-0.6c2,0,2.3,0.8,2.3,2.8c0,2.4-0.5,2.8-2.6,2.8
		c-1.3,0-2.4-0.2-2.4-1.8v-0.6h0.7c0,1.3,0.1,1.6,1.8,1.6c1.7,0,1.7-0.3,1.7-2c0-1.5,0-2-1.8-2c-1,0-1.4,0.1-1.6,0.7h-0.7V81z"/>
	<path id="XMLID_54_" d="M381.8,98c-0.1-1.1-0.1-1.3-1.6-1.3c-1.4,0-1.8,0.1-1.8,1.6v1.6h0c0.5-0.6,0.9-0.7,1.9-0.7
		c1.9,0,2.4,0.4,2.4,2.5c0,2.2-0.7,2.5-2.5,2.5s-2.5-0.3-2.5-2.5v-3.2c0-2.2,0.7-2.5,2.5-2.5s2.4,0.4,2.4,2H381.8z M380.1,99.8
		c-1.6,0-1.8,0.2-1.8,1.7c0,1.6,0.3,1.7,1.8,1.7s1.8-0.1,1.8-1.7S381.6,99.8,380.1,99.8z"/>
	<path id="XMLID_57_" d="M381.8,113c-0.1-1.1-0.1-1.3-1.6-1.3c-1.4,0-1.8,0.1-1.8,1.6v1.6h0c0.5-0.6,0.9-0.7,1.9-0.7
		c1.9,0,2.4,0.4,2.4,2.5c0,2.2-0.7,2.5-2.5,2.5s-2.5-0.3-2.5-2.5v-3.2c0-2.2,0.7-2.5,2.5-2.5s2.4,0.4,2.4,2H381.8z M380.1,114.8
		c-1.6,0-1.8,0.2-1.8,1.7c0,1.6,0.3,1.7,1.8,1.7s1.8-0.1,1.8-1.7S381.6,114.8,380.1,114.8z"/>
</g>
</svg>
