<?xml version="1.0" encoding="utf-8"?>
<!-- Generator: Adobe Illustrator 19.0.1, SVG Export Plug-In . SVG Version: 6.00 Build 0)  -->
<svg version="1.1" id="Layer_1" xmlns="http://www.w3.org/2000/svg" xmlns:xlink="http://www.w3.org/1999/xlink" x="0px" y="0px"
	 viewBox="0 0 200 200" enable-background="new 0 0 200 200" xml:space="preserve">
<g>
	<rect fill="#CD332C" width="200" height="200"/>
	<path fill="#FFFFFF" d="M86.1,19.5H77l-6.1,23.6l-6.4-23.6h-9.5c1.9,5.6,3.9,11.2,5.8,16.8c2.9,8.4,4.7,14.7,5.5,19v24.4h9V55.3
		L86.1,19.5z M110.2,65.2V49.5c0-4.8-0.8-8.3-2.5-10.6c-2.3-3.1-5.4-4.6-9.5-4.6c-4,0-7.2,1.5-9.5,4.6c-1.7,2.3-2.5,5.8-2.5,10.6
		v15.7c0,4.8,0.8,8.3,2.5,10.5c2.2,3.1,5.4,4.6,9.5,4.6c4.1,0,7.2-1.5,9.5-4.6C109.3,73.5,110.2,69.9,110.2,65.2z M102,66.7
		c0,4.1-1.3,6.2-3.9,6.2c-2.6,0-3.9-2.1-3.9-6.2V47.9c0-4.1,1.3-6.2,3.9-6.2c2.6,0,3.9,2.1,3.9,6.2V66.7z M140.2,79.7V34.9h-8.1
		v34.3c-1.8,2.5-3.5,3.8-5.1,3.8c-1.1,0-1.7-0.6-1.9-1.9c-0.1-0.3-0.1-1.3-0.1-3.2v-33h-8.1v35.4c0,3.2,0.3,5.3,0.7,6.7
		c0.8,2.3,2.6,3.3,5.2,3.3c3,0,6-1.8,9.3-5.5v4.9H140.2z"/>
	<path fill="#FFFFFF" d="M166.5,134.1c0,10.4,0,21.4-2.3,31.4c-1.6,7.1-7.4,12.3-14.4,13.1c-16.5,1.8-33.2,1.9-49.8,1.8
		c-16.6,0-33.3,0-49.8-1.8c-7-0.8-12.8-6-14.4-13.1c-2.3-10.1-2.3-21.1-2.3-31.4c0-10.4,0-21.4,2.3-31.4c1.6-7.1,7.4-12.3,14.4-13.1
		c16.5-1.8,33.2-1.9,49.8-1.8c16.6,0,33.3,0,49.8,1.8c7,0.8,12.8,6,14.4,13.1C166.5,112.7,166.5,123.7,166.5,134.1z"/>
	<path fill="#CD332C" d="M71.4,111.7v-8.4h-28v8.4h9.5v51.2h8.9v-51.2H71.4z M87.7,162.9V158c-3.2,3.7-6.2,5.5-9.2,5.5
		c-2.6,0-4.4-1.1-5.2-3.3c-0.4-1.3-0.7-3.5-0.7-6.6v-35.1h8v32.7c0,1.9,0,2.9,0.1,3.1c0.2,1.2,0.8,1.9,1.9,1.9
		c1.6,0,3.3-1.2,5.1-3.8v-33.9h8v44.4H87.7z M118.2,150.2c0,4-1.2,6-3.5,6c-1.3,0-2.7-0.6-4-2v-27c1.3-1.3,2.7-2,4-2
		c2.3,0,3.5,2.1,3.5,6.1V150.2z M126.3,149.6v-17.7c0-4.2-0.3-7.1-0.8-8.9c-1.1-3.3-3.2-5-6.4-5c-3,0-5.7,1.6-8.3,4.8v-19.4h-8v59.5
		h8v-4.3c2.7,3.3,5.4,4.9,8.3,4.9c3.2,0,5.4-1.7,6.4-5C126,156.6,126.3,153.7,126.3,149.6z M148.6,135.5h-8v-4.1
		c0-4.1,1.3-6.2,4-6.2c2.7,0,4,2.1,4,6.2V135.5z M156.6,148.7v-1.2h-8.2c0,3.2-0.1,5-0.2,5.4c-0.5,2.1-1.6,3.2-3.6,3.2
		c-2.8,0-4.1-2-4.1-6.2v-7.9h16.1V133c0-4.7-0.8-8.2-2.5-10.5c-2.3-3-5.4-4.5-9.5-4.5c-4.1,0-7.3,1.5-9.6,4.5
		c-1.7,2.2-2.5,5.7-2.5,10.5v15.5c0,4.7,0.9,8.2,2.6,10.4c2.3,3,5.5,4.5,9.7,4.5c4.2,0,7.5-1.6,9.7-4.8c1-1.4,1.6-3,1.9-4.8
		C156.5,153.1,156.6,151.3,156.6,148.7z"/>
</g>
</svg>
